<?xml version="1.0" encoding="UTF-8" standalone="no"?>
<!DOCTYPE svg PUBLIC "-//W3C//DTD SVG 1.1//EN"
 "http://www.w3.org/Graphics/SVG/1.1/DTD/svg11.dtd">
<!-- Generated by graphviz version 2.40.1 (20161225.0304)
 -->
<!-- Title: pygcloud Pages: 1 -->
<svg width="834pt" height="481pt"
 viewBox="0.00 0.00 834.00 481.20" xmlns="http://www.w3.org/2000/svg" xmlns:xlink="http://www.w3.org/1999/xlink">
<g id="graph0" class="graph" transform="scale(1 1) rotate(0) translate(4 477.2)">
<title>pygcloud</title>
<polygon fill="#ffffff" stroke="transparent" points="-4,4 -4,-477.2 830,-477.2 830,4 -4,4"/>
<g id="clust1" class="cluster">
<title>cluster_common</title>
<polygon fill="none" stroke="#000000" points="8,-388.4 8,-465.2 271,-465.2 271,-388.4 8,-388.4"/>
<text text-anchor="middle" x="139.5" y="-448.6" font-family="Times,serif" font-size="14.00" fill="#000000">common</text>
</g>
<g id="clust2" class="cluster">
<title>cluster_jeeves</title>
<polygon fill="none" stroke="#000000" points="279,-388.4 279,-465.2 369,-465.2 369,-388.4 279,-388.4"/>
<text text-anchor="middle" x="324" y="-448.6" font-family="Times,serif" font-size="14.00" fill="#000000">jeeves</text>
</g>
<g id="clust3" class="cluster">
<title>cluster_ingress_proxy</title>
<polygon fill="none" stroke="#000000" points="377,-8 377,-465.2 818,-465.2 818,-8 377,-8"/>
<text text-anchor="middle" x="597.5" y="-448.6" font-family="Times,serif" font-size="14.00" fill="#000000">ingress_proxy</text>
</g>
<!-- StorageBucket__gs_systemical_jeeves_files_dev -->
<g id="node1" class="node">
<title>StorageBucket__gs_systemical_jeeves_files_dev</title>
<polygon fill="none" stroke="#000000" points="262.6472,-432.4 151.3528,-432.4 151.3528,-396.4 262.6472,-396.4 262.6472,-432.4"/>
<text text-anchor="start" x="165.7903" y="-416.8" font-family="Times,serif" font-size="14.00" fill="#000000">StorageBucket</text>
<text text-anchor="start" x="159.1767" y="-402.8" font-family="Times,serif" font-weight="bold" font-size="14.00" fill="#000000">gs://some&#45;bucket</text>
</g>
<!-- FirestoreDatabase__default -->
<g id="node2" class="node">
<title>FirestoreDatabase__default</title>
<polygon fill="none" stroke="#000000" points="133.559,-432.4 16.441,-432.4 16.441,-396.4 133.559,-396.4 133.559,-432.4"/>
<text text-anchor="start" x="24.4705" y="-416.8" font-family="Times,serif" font-size="14.00" fill="#000000">FirestoreDatabase</text>
<text text-anchor="start" x="55.5645" y="-402.8" font-family="Times,serif" font-weight="bold" font-size="14.00" fill="#000000">default</text>
</g>
<!-- CloudRun__jeeves -->
<g id="node3" class="node">
<title>CloudRun__jeeves</title>
<polygon fill="none" stroke="#000000" points="360.5651,-432.4 287.4349,-432.4 287.4349,-396.4 360.5651,-396.4 360.5651,-432.4"/>
<text text-anchor="start" x="295.2181" y="-416.8" font-family="Times,serif" font-size="14.00" fill="#000000">CloudRun</text>
<text text-anchor="start" x="306.5105" y="-402.8" font-family="Times,serif" font-weight="bold" font-size="14.00" fill="#000000">jeeves</text>
</g>
<!-- SSLCertificateService__proxy_certificate -->
<g id="node4" class="node">
<title>SSLCertificateService__proxy_certificate</title>
<polygon fill="none" stroke="#000000" points="809.6741,-52 668.3259,-52 668.3259,-16 809.6741,-16 809.6741,-52"/>
<text text-anchor="start" x="676.413" y="-36.4" font-family="Times,serif" font-size="14.00" fill="#000000">SSLCertificateService</text>
<text text-anchor="start" x="692.3611" y="-22.4" font-family="Times,serif" font-weight="bold" font-size="14.00" fill="#000000">proxy&#45;certificate</text>
</g>
<!-- HTTPSProxyService__proxy_service -->
<g id="node5" class="node">
<title>HTTPSProxyService__proxy_service</title>
<polygon fill="none" stroke="#000000" points="656.1979,-178.8 521.8021,-178.8 521.8021,-142.8 656.1979,-142.8 656.1979,-178.8"/>
<text text-anchor="start" x="529.9011" y="-163.2" font-family="Times,serif" font-size="14.00" fill="#000000">HTTPSProxyService</text>
<text text-anchor="start" x="550.5196" y="-149.2" font-family="Times,serif" font-weight="bold" font-size="14.00" fill="#000000">proxy&#45;service</text>
</g>
<!-- HTTPSProxyService__proxy_service&#45;&gt;SSLCertificateService__proxy_certificate -->
<g id="edge4" class="edge">
<title>HTTPSProxyService__proxy_service&#45;&gt;SSLCertificateService__proxy_certificate</title>
<path fill="none" stroke="#000000" d="M582.8493,-142.5607C578.7909,-126.919 576.0076,-104.5159 586.8962,-89 596.0325,-75.9811 626.8666,-63.7145 658.4068,-54.0836"/>
<polygon fill="#000000" stroke="#000000" points="659.6021,-57.3799 668.1945,-51.1814 657.6121,-50.6687 659.6021,-57.3799"/>
<text text-anchor="middle" x="598.0519" y="-93.2" font-family="Times,serif" font-size="14.00" fill="#000000">uses</text>
</g>
<!-- UrlMapDefaultService__urlmap_backend_service -->
<g id="node11" class="node">
<title>UrlMapDefaultService__urlmap_backend_service</title>
<polygon fill="none" stroke="#000000" points="650.7612,-52 499.2388,-52 499.2388,-16 650.7612,-16 650.7612,-52"/>
<text text-anchor="start" x="510.8639" y="-36.4" font-family="Times,serif" font-size="14.00" fill="#000000">UrlMapDefaultService</text>
<text text-anchor="start" x="507.3695" y="-22.4" font-family="Times,serif" font-weight="bold" font-size="14.00" fill="#000000">urlmap&#45;backend&#45;service</text>
</g>
<!-- HTTPSProxyService__proxy_service&#45;&gt;UrlMapDefaultService__urlmap_backend_service -->
<g id="edge5" class="edge">
<title>HTTPSProxyService__proxy_service&#45;&gt;UrlMapDefaultService__urlmap_backend_service</title>
<path fill="none" stroke="#000000" d="M602.5913,-142.6183C611.6873,-128.1719 620.9857,-107.407 615,-89 611.6592,-78.7263 605.5965,-68.7704 599.1844,-60.2176"/>
<polygon fill="#000000" stroke="#000000" points="601.7259,-57.7918 592.7438,-52.1727 596.2613,-62.1666 601.7259,-57.7918"/>
<text text-anchor="middle" x="628.0519" y="-93.2" font-family="Times,serif" font-size="14.00" fill="#000000">uses</text>
</g>
<!-- CloudRunNeg__backend_neg -->
<g id="node6" class="node">
<title>CloudRunNeg__backend_neg</title>
<polygon fill="none" stroke="#000000" points="481.3851,-52 384.6149,-52 384.6149,-16 481.3851,-16 481.3851,-52"/>
<text text-anchor="start" x="392.5575" y="-36.4" font-family="Times,serif" font-size="14.00" fill="#000000">CloudRunNeg</text>
<text text-anchor="start" x="397.2405" y="-22.4" font-family="Times,serif" font-weight="bold" font-size="14.00" fill="#000000">backend&#45;neg</text>
</g>
<!-- ServicesIdentityIAP__iap -->
<g id="node7" class="node">
<title>ServicesIdentityIAP__iap</title>
<polygon fill="none" stroke="#000000" points="805.5199,-432.4 676.4801,-432.4 676.4801,-396.4 805.5199,-396.4 805.5199,-432.4"/>
<text text-anchor="start" x="684.2405" y="-416.8" font-family="Times,serif" font-size="14.00" fill="#000000">ServicesIdentityIAP</text>
<text text-anchor="start" x="732.4474" y="-402.8" font-family="Times,serif" font-weight="bold" font-size="14.00" fill="#000000">iap</text>
</g>
<!-- ServicesAddress__ingress_proxy_ip -->
<g id="node8" class="node">
<title>ServicesAddress__ingress_proxy_ip</title>
<polygon fill="none" stroke="#000000" points="643.7936,-432.4 534.2064,-432.4 534.2064,-396.4 643.7936,-396.4 643.7936,-432.4"/>
<text text-anchor="start" x="542.3534" y="-416.8" font-family="Times,serif" font-size="14.00" fill="#000000">ServicesAddress</text>
<text text-anchor="start" x="542.7363" y="-402.8" font-family="Times,serif" font-weight="bold" font-size="14.00" fill="#000000">ingress&#45;proxy&#45;ip</text>
</g>
<!-- FwdRuleHTTPSProxyService__fwd_proxy_service -->
<g id="node10" class="node">
<title>FwdRuleHTTPSProxyService__fwd_proxy_service</title>
<polygon fill="none" stroke="#000000" points="681.5294,-305.6 496.4706,-305.6 496.4706,-269.6 681.5294,-269.6 681.5294,-305.6"/>
<text text-anchor="start" x="504.2356" y="-290" font-family="Times,serif" font-size="14.00" fill="#000000">FwdRuleHTTPSProxyService</text>
<text text-anchor="start" x="537.3057" y="-276" font-family="Times,serif" font-weight="bold" font-size="14.00" fill="#000000">fwd&#45;proxy&#45;service</text>
</g>
<!-- ServicesAddress__ingress_proxy_ip&#45;&gt;FwdRuleHTTPSProxyService__fwd_proxy_service -->
<g id="edge1" class="edge">
<title>ServicesAddress__ingress_proxy_ip&#45;&gt;FwdRuleHTTPSProxyService__fwd_proxy_service</title>
<path fill="none" stroke="#000000" d="M589,-396.2327C589,-375.2352 589,-340.4261 589,-315.879"/>
<polygon fill="#000000" stroke="#000000" points="592.5001,-315.7336 589,-305.7336 585.5001,-315.7337 592.5001,-315.7336"/>
<text text-anchor="middle" x="612.3296" y="-346.8" font-family="Times,serif" font-size="14.00" fill="#000000">used_by</text>
</g>
<!-- BackendService__backend_service -->
<g id="node9" class="node">
<title>BackendService__backend_service</title>
<polygon fill="none" stroke="#000000" points="499.458,-178.8 392.542,-178.8 392.542,-142.8 499.458,-142.8 499.458,-178.8"/>
<text text-anchor="start" x="400.521" y="-163.2" font-family="Times,serif" font-size="14.00" fill="#000000">BackendService</text>
<text text-anchor="start" x="400.528" y="-149.2" font-family="Times,serif" font-weight="bold" font-size="14.00" fill="#000000">backend&#45;service</text>
</g>
<!-- BackendService__backend_service&#45;&gt;CloudRunNeg__backend_neg -->
<g id="edge3" class="edge">
<title>BackendService__backend_service&#45;&gt;CloudRunNeg__backend_neg</title>
<path fill="none" stroke="#000000" d="M444.1374,-142.6327C441.9847,-121.6352 438.4159,-86.8261 435.8993,-62.279"/>
<polygon fill="#000000" stroke="#000000" points="439.3609,-61.7245 434.8591,-52.1336 432.3974,-62.4385 439.3609,-61.7245"/>
<text text-anchor="middle" x="452.0519" y="-93.2" font-family="Times,serif" font-size="14.00" fill="#000000">uses</text>
</g>
<!-- BackendService__backend_service&#45;&gt;UrlMapDefaultService__urlmap_backend_service -->
<g id="edge2" class="edge">
<title>BackendService__backend_service&#45;&gt;UrlMapDefaultService__urlmap_backend_service</title>
<path fill="none" stroke="#000000" d="M464.0799,-142.7446C478.6801,-128.1909 499.7774,-107.2212 518.3408,-89 528.2993,-79.2251 539.2962,-68.5282 548.9313,-59.1878"/>
<polygon fill="#000000" stroke="#000000" points="551.5721,-61.5025 556.3206,-52.0314 546.7022,-56.4742 551.5721,-61.5025"/>
<text text-anchor="middle" x="541.3296" y="-93.2" font-family="Times,serif" font-size="14.00" fill="#000000">used_by</text>
</g>
<!-- FwdRuleHTTPSProxyService__fwd_proxy_service&#45;&gt;HTTPSProxyService__proxy_service -->
<g id="edge6" class="edge">
<title>FwdRuleHTTPSProxyService__fwd_proxy_service&#45;&gt;HTTPSProxyService__proxy_service</title>
<path fill="none" stroke="#000000" d="M589,-269.4327C589,-248.4352 589,-213.6261 589,-189.079"/>
<polygon fill="#000000" stroke="#000000" points="592.5001,-188.9336 589,-178.9336 585.5001,-188.9337 592.5001,-188.9336"/>
<text text-anchor="middle" x="601.0519" y="-220" font-family="Times,serif" font-size="14.00" fill="#000000">uses</text>
</g>
</g>
</svg>